solid prueba.stl
 facet normal 0.0 0.0 -1.0
  outer loop
   vertex 1.679 2.0 0.0
   vertex 0.0 0.0 0.0
   vertex 0.0 2.0 0.0
  endloop
 endfacet
 facet normal 0.0 0.0 -1.0
  outer loop
   vertex 0.0 0.0 0.0
   vertex 1.679 2.0 0.0
   vertex 1.679 0.0 0.0
  endloop
 endfacet
 facet normal 0.0 0.0 1.0
  outer loop
   vertex 1.679 0.0 1.0
   vertex 0.0 2.0 1.0
   vertex 0.0 0.0 1.0
  endloop
 endfacet
 facet normal 0.0 0.0 1.0
  outer loop
   vertex 0.0 2.0 1.0
   vertex 1.679 0.0 1.0
   vertex 1.679 2.0 1.0
  endloop
 endfacet
 facet normal 0.0 -1.0 0.0
  outer loop
   vertex 1.679 0.0 1.0
   vertex 0.0 0.0 0.0
   vertex 1.679 0.0 0.0
  endloop
 endfacet
 facet normal 0.0 -1.0 0.0
  outer loop
   vertex 0.0 0.0 0.0
   vertex 1.679 0.0 1.0
   vertex 0.0 0.0 1.0
  endloop
 endfacet
 facet normal -1.0 0.0 0.0
  outer loop
   vertex 0.0 2.0 1.0
   vertex 0.0 0.0 0.0
   vertex 0.0 0.0 1.0
  endloop
 endfacet
 facet normal -1.0 0.0 0.0
  outer loop
   vertex 0.0 0.0 0.0
   vertex 0.0 2.0 1.0
   vertex 0.0 2.0 0.0
  endloop
 endfacet
 facet normal 0.0 1.0 0.0
  outer loop
   vertex 0.0 2.0 1.0
   vertex 1.679 2.0 0.0
   vertex 0.0 2.0 0.0
  endloop
 endfacet
 facet normal 0.0 1.0 0.0
  outer loop
   vertex 1.679 2.0 0.0
   vertex 0.0 2.0 1.0
   vertex 1.679 2.0 1.0
  endloop
 endfacet
 facet normal 1.0 0.0 0.0
  outer loop
   vertex 1.679 2.0 0.0
   vertex 1.679 0.0 1.0
   vertex 1.679 0.0 0.0
  endloop
 endfacet
 facet normal 1.0 0.0 0.0
  outer loop
   vertex 1.679 0.0 1.0
   vertex 1.679 2.0 0.0
   vertex 1.679 2.0 1.0
  endloop
 endfacet
endsolid prueba.stl
